<svg width="1400" height="184" viewBox="0 0 1400 184" fill="none" xmlns="http://www.w3.org/2000/svg">
<mask id="mask0_61_1271" style="mask-type:luminance" maskUnits="userSpaceOnUse" x="0" y="0" width="1459" height="488">
<path d="M1458.17 0H0V487.955H1458.17V0Z" fill="white"/>
</mask>
<g mask="url(#mask0_61_1271)">
<path opacity="0.0213" d="M-81.4021 170.355C-81.4021 170.355 -77.9191 161.882 -68.7176 148.205C-49.832 120.143 -23.9729 91.7306 10.4936 67.6703C18.1911 62.2954 26.2823 57.1298 34.8451 52.2424C39.03 49.8552 43.1294 47.4136 47.7041 45.288C58.2312 40.3985 69.9317 36.0697 81.5579 31.4794C95.8465 25.8368 110.647 20.2632 125.872 14.8339C217.849 -17.9739 325.849 -45.3629 431.774 -52.8969C505.344 -58.0458 576.49 -52.4094 641.736 -30.5417C656.166 -25.7067 670.161 -19.2334 685.363 -12.9589C707.512 -3.81388 726.149 11.0094 743.238 26.0439C771.418 50.9327 797.559 74.7733 841.201 63.9106C847.918 62.239 854.661 60.3664 861.431 58.3245C908.901 44.0326 957.567 21.4829 1007.14 1.39362C1041.45 -12.486 1076.25 -25.1459 1111.49 -32.9959C1131.67 -37.5025 1151.99 -40.4295 1172.45 -41.0948C1191.64 -41.7204 1211.23 -40.781 1230.32 -36.4355C1254.56 -30.9162 1272.37 -21.4469 1287.05 -10.7683C1325.87 17.7483 1340.67 58.3642 1368.8 89.9188C1398.34 123.065 1431.4 154.992 1458.86 187.235C1461.34 190.154 1464.43 192.966 1467.41 195.836C1480.4 208.434 1494.69 221.041 1495.9 234.617" stroke="white" stroke-miterlimit="10" stroke-linecap="round" stroke-linejoin="round"/>
<path opacity="0.0426" d="M-81.8884 179.434C-81.8884 179.434 -78.0749 171.295 -68.5801 158.072C-49.0818 130.922 -22.4244 103.497 12.8107 80.0272C20.6605 74.7987 28.8594 69.7461 37.541 64.9654C41.789 62.6305 45.9441 60.237 50.5671 58.1616C61.239 53.3683 73.0286 49.1421 84.7254 44.6543C99.1588 39.1121 114.075 33.6745 129.396 28.3958C222.004 -3.50812 330.268 -29.0037 436.497 -37.4541C510.005 -43.1407 580.293 -38.8307 644.892 -18.1368C659.17 -13.5632 672.92 -7.27617 687.91 -1.25063C709.781 7.54288 728.244 21.8661 745.243 36.4299C773.189 60.5592 799.293 83.8538 842.56 73.2882C849.222 71.6604 855.905 69.8402 862.615 67.8568C909.733 53.9709 958.064 32.1074 1007.16 12.5851C1041.18 -0.89076 1075.67 -13.1636 1110.58 -20.7227C1130.55 -25.0703 1150.66 -27.8676 1170.9 -28.4555C1189.88 -29.0057 1209.26 -28.0287 1228.13 -23.7125C1252.29 -18.1912 1270.13 -8.79092 1284.91 1.77887C1323.81 30.1449 1339.42 70.311 1368.13 101.435C1398.26 134.1 1431.96 165.399 1459.99 196.598C1462.53 199.427 1465.66 202.143 1468.66 204.921C1481.81 217.096 1496.03 229.144 1497.14 242.122" stroke="white" stroke-miterlimit="10" stroke-linecap="round" stroke-linejoin="round"/>
<path opacity="0.0638" d="M-82.3711 188.512C-82.3711 188.512 -78.2308 180.71 -68.439 167.94C-48.3317 141.708 -20.8759 115.266 15.1316 92.3839C23.1299 87.3019 31.4402 82.3623 40.2443 77.6883C44.5517 75.4057 48.7699 73.0624 53.4338 71.0351C64.2505 66.336 76.1292 62.2123 87.8965 57.827C102.471 52.3852 117.506 47.0815 132.927 41.9556C226.163 10.9555 334.646 -12.814 441.228 -22.0155C514.639 -28.3527 584.088 -25.2605 648.049 -5.73607C662.17 -1.42614 675.679 4.67682 690.461 10.4534C712.058 18.8954 730.412 32.6914 747.252 46.8116C775.075 70.1375 801.027 92.932 843.923 82.6614C850.525 81.0797 857.153 79.3119 863.804 77.3849C910.568 63.907 958.566 42.7276 1007.19 23.7723C1040.91 10.7003 1075.09 -1.18555 1109.68 -8.45385C1129.44 -12.6424 1149.33 -15.3121 1169.35 -15.8205C1188.12 -16.2975 1207.28 -15.2786 1225.95 -10.9938C1250.02 -5.47036 1267.88 3.86086 1282.76 14.3219C1321.74 42.5373 1338.17 82.2535 1367.47 112.946C1398.18 145.13 1432.52 175.8 1461.11 205.957C1463.71 208.696 1466.88 211.315 1469.91 214.003C1483.19 225.764 1497.38 237.248 1498.38 249.625" stroke="white" stroke-miterlimit="10" stroke-linecap="round" stroke-linejoin="round"/>
<path opacity="0.0851" d="M-82.8577 197.59C-82.8577 197.59 -78.3906 190.129 -68.3054 177.804C-47.5929 152.493 -19.3424 127.033 17.4448 104.738C25.588 99.8026 34.0133 94.978 42.94 90.4086C47.3105 88.1783 51.5882 85.8832 56.2966 83.9061C67.2581 79.3032 79.2222 75.282 91.0638 70.9972C105.783 65.6579 120.933 60.486 136.451 55.5149C230.318 25.4186 339.042 3.49447 445.951 -6.57529C519.288 -13.4837 587.853 -11.6949 651.201 6.66623C665.163 10.7125 678.438 16.6314 693.009 22.1611C714.33 30.2516 732.529 43.5392 749.257 57.1971C776.88 79.7468 802.758 102.012 845.282 92.0385C851.824 90.5028 858.397 88.7851 864.992 86.9168C911.404 73.8468 959.071 53.3516 1007.22 34.9633C1040.65 22.295 1074.51 10.7983 1108.77 3.81877C1128.32 -0.208718 1148 -2.75284 1167.8 -3.17964C1186.37 -3.58135 1205.32 -2.52479 1223.77 1.73075C1247.74 7.25625 1265.64 16.5184 1280.62 26.8685C1319.68 54.9354 1336.92 94.1997 1366.8 124.461C1398.1 156.166 1433.08 186.204 1462.24 215.319C1464.89 217.966 1468.09 220.493 1471.15 223.088C1484.56 234.434 1498.72 245.351 1499.6 257.13" stroke="white" stroke-miterlimit="10" stroke-linecap="round" stroke-linejoin="round"/>
<path opacity="0.1064" d="M-83.3401 206.668C-83.3401 206.668 -78.5463 199.548 -68.164 187.671C-46.8462 163.284 -17.8048 138.803 19.7659 117.092C28.0539 112.303 36.5943 107.592 45.6435 103.131C50.0772 100.951 54.4142 98.7061 59.1672 96.7792C70.2736 92.2726 82.3268 88.354 94.2389 84.1696C109.099 78.9307 124.368 73.8948 139.983 69.0743C234.481 39.884 343.447 19.8051 450.682 8.86292C523.941 1.38749 591.604 1.86452 654.361 19.0687C668.163 22.8514 681.201 28.5861 695.56 33.8668C716.607 41.6059 734.646 54.3829 751.266 67.5805C778.689 89.3561 804.492 111.09 846.645 101.413C853.132 99.9238 859.645 98.2584 866.18 96.4466C912.236 83.7846 959.502 63.915 1007.25 46.1501C1040.34 33.8438 1073.97 22.82 1107.87 16.0873C1127.23 12.2439 1146.67 9.80233 1166.26 9.45502C1184.61 9.12864 1203.34 10.2249 1221.59 14.4491C1245.47 19.9788 1263.4 29.1698 1278.47 39.4111C1317.62 67.3273 1335.67 106.144 1366.13 135.972C1398.02 167.196 1433.64 196.6 1463.36 224.678C1466.07 227.234 1469.3 229.665 1472.4 232.168C1485.93 243.097 1500.07 253.452 1500.84 264.63" stroke="white" stroke-miterlimit="10" stroke-linecap="round" stroke-linejoin="round"/>
<path opacity="0.1277" d="M-83.8267 215.745C-83.8267 215.745 -78.7098 208.971 -68.0305 197.537C-46.1148 174.081 -16.2863 150.573 22.0828 129.449C30.5156 124.806 39.1712 120.209 48.343 115.853C52.8397 113.726 57.2362 111.531 62.03 109.652C73.2812 105.244 85.4235 101.424 97.4062 97.3417C112.411 92.2032 127.796 87.3012 143.506 82.6335C238.636 54.3469 347.839 36.1197 455.405 24.3008C528.586 16.2605 595.32 15.4174 657.514 31.4687C671.149 34.9878 683.96 40.5384 698.107 45.5701C718.879 52.9577 736.762 65.2243 753.271 77.9616C780.493 98.961 806.222 120.165 848.004 110.786C854.431 109.34 860.885 107.729 867.368 105.974C913.071 93.72 959.992 74.522 1007.28 57.3367C1040.06 45.4258 1073.39 34.8079 1106.97 28.3555C1126.12 24.6775 1145.34 22.3593 1164.7 22.0894C1182.85 21.8363 1201.37 22.9723 1219.41 27.1672C1243.19 32.699 1261.16 41.8189 1276.33 51.9535C1315.55 79.7191 1334.42 118.086 1365.46 147.481C1397.93 178.226 1434.2 206.992 1464.49 234.033C1467.24 236.498 1470.52 238.837 1473.65 241.245C1487.3 251.759 1501.41 261.548 1502.07 272.128" stroke="white" stroke-miterlimit="10" stroke-linecap="round" stroke-linejoin="round"/>
<path opacity="0.1489" d="M-84.3093 224.822C-84.3093 224.822 -78.8731 218.394 -67.8893 207.402C-45.3796 184.879 -14.7638 162.34 24.4036 141.803C32.9813 137.307 41.752 132.823 51.0463 128.574C55.6024 126.499 60.062 124.354 64.9004 122.523C76.3001 118.211 88.5278 114.494 100.581 110.512C115.727 105.476 131.23 100.706 147.038 96.1931C242.795 68.8104 352.24 52.4369 460.136 39.7414C533.238 31.1383 599.023 28.9708 660.674 43.8714C674.138 47.1248 686.726 52.4934 700.662 57.2761C721.163 64.3122 738.882 76.0683 755.287 88.3453C782.309 108.569 807.964 129.246 849.374 120.161C855.742 118.762 862.133 117.193 868.564 115.504C913.87 103.602 960.489 85.1338 1007.32 68.5259C1039.79 57.0104 1072.83 46.7963 1106.08 40.6264C1125.01 37.1115 1144.02 34.9168 1163.16 34.7285C1181.11 34.5507 1199.41 35.7265 1217.24 39.89C1240.93 45.4238 1258.92 54.4747 1274.19 64.4984C1313.49 92.1133 1333.17 130.03 1364.8 158.995C1397.86 189.258 1434.76 217.386 1465.62 243.394C1468.43 245.769 1471.74 248.011 1474.9 250.328C1488.68 260.425 1502.77 269.649 1503.31 279.631" stroke="white" stroke-miterlimit="10" stroke-linecap="round" stroke-linejoin="round"/>
<path opacity="0.1702" d="M-84.7957 233.9C-84.7957 233.9 -79.0438 227.82 -67.7518 217.269C-44.6553 195.684 -13.2523 174.111 26.7209 154.16C35.4396 149.81 44.3291 145.441 53.7459 141.297C58.3652 139.274 62.8843 137.177 67.7672 135.397C79.3117 131.183 91.6286 127.564 103.752 123.685C119.044 118.749 134.662 114.113 150.565 109.753C246.954 83.2738 356.64 68.7582 464.863 55.1798C537.884 46.018 602.695 42.5178 663.83 56.2719C677.116 59.2617 689.489 64.4462 703.213 68.98C723.443 75.6645 741.003 86.9101 757.297 98.7268C784.114 118.174 809.698 138.322 850.737 129.534C857.049 128.181 863.381 126.662 869.756 125.032C914.701 113.529 960.983 95.7413 1007.35 79.7129C1039.52 68.5929 1072.26 58.7847 1105.18 52.8951C1123.9 49.5455 1142.7 47.4721 1161.62 47.3633C1179.35 47.2587 1197.44 48.4743 1215.06 52.6085C1238.66 58.1465 1256.68 67.1263 1272.05 77.0412C1311.43 104.505 1331.92 141.975 1364.14 170.506C1397.77 200.291 1435.33 227.778 1466.75 252.752C1469.62 255.035 1472.96 257.184 1476.15 259.408C1490.05 269.088 1504.11 277.75 1504.54 287.131" stroke="white" stroke-miterlimit="10" stroke-linecap="round" stroke-linejoin="round"/>
<path opacity="0.1915" d="M-85.2786 242.978C-85.2786 242.978 -79.2148 237.252 -67.6146 227.136C-43.9389 206.492 -11.7487 185.88 29.0377 166.515C37.8938 162.309 46.9059 158.056 56.4453 154.02C61.1277 152.049 65.7061 150.003 70.6299 148.271C82.3229 144.155 94.74 140.653 106.92 136.86C122.374 132.046 138.089 127.522 154.089 123.315C251.109 97.7399 361.032 85.0863 469.586 70.6208C542.529 60.9025 606.334 56.0653 666.983 68.675C680.09 71.4012 692.247 76.4015 705.756 80.6884C725.719 87.0215 743.108 97.7566 759.298 109.113C785.907 127.782 811.428 147.402 852.092 138.91C858.345 137.603 864.621 136.134 870.937 134.561C915.526 123.457 961.47 106.351 1007.38 90.8984C1039.24 80.1738 1071.68 70.7693 1104.27 65.1622C1122.78 61.9758 1141.36 60.0259 1160.06 59.9966C1177.59 59.9673 1195.46 61.2226 1212.87 65.3254C1236.38 70.8677 1254.43 79.7763 1269.9 89.5824C1309.36 116.896 1330.66 153.918 1363.47 182.016C1397.68 211.321 1435.88 238.162 1467.87 262.109C1470.79 264.3 1474.17 266.354 1477.39 268.486C1491.41 277.751 1505.45 285.847 1505.78 294.63" stroke="white" stroke-miterlimit="10" stroke-linecap="round" stroke-linejoin="round"/>
<path opacity="0.2128" d="M-85.7649 252.056C-85.7649 252.056 -79.3967 246.683 -67.4771 237.002C-43.2333 217.306 -10.2484 197.648 31.3549 178.87C40.3484 174.812 49.483 170.673 59.1412 166.742C63.8867 164.821 68.5246 162.828 73.4929 161.143C85.3307 157.126 97.8407 153.726 110.087 150.032C125.686 145.324 141.512 140.931 157.613 136.876C255.264 112.205 365.425 101.415 474.309 86.0626C547.174 75.7878 609.943 69.6117 670.135 81.079C683.054 83.5394 695.01 88.3578 708.304 92.3957C727.999 98.3773 745.221 108.6 761.303 119.498C787.704 137.388 813.159 156.482 853.455 148.287C859.648 147.023 865.865 145.607 872.125 144.092C916.357 133.39 961.963 116.962 1007.41 102.089C1038.97 91.7597 1071.1 82.7591 1103.36 77.4344C1121.67 74.4133 1140.03 72.5868 1158.51 72.637C1175.83 72.6809 1193.49 73.9781 1210.69 78.0495C1234.1 83.5938 1252.19 92.4334 1267.76 102.131C1307.3 129.294 1329.41 165.868 1362.8 193.533C1397.6 222.359 1436.43 248.553 1468.99 271.473C1471.98 273.572 1475.38 275.532 1478.64 277.572C1492.78 286.418 1506.8 293.954 1507.01 302.137" stroke="white" stroke-miterlimit="10" stroke-linecap="round" stroke-linejoin="round"/>
<path opacity="0.234" d="M-86.2515 261.134C-86.2515 261.134 -79.5787 256.117 -67.3436 246.867C-42.5427 228.121 -8.75954 209.413 33.6718 191.225C42.8027 187.311 52.0599 183.288 61.8406 179.463C66.6492 177.595 71.3466 175.651 76.3557 174.015C88.3421 170.098 100.937 166.799 113.254 163.202C129.002 158.602 144.943 154.336 161.14 150.434C259.419 126.668 369.822 117.745 479.036 101.499C551.823 90.6722 613.519 83.1528 673.291 93.4778C686.02 95.6767 697.777 100.309 710.855 104.098C730.282 109.728 747.337 119.44 763.312 129.878C789.505 146.992 814.893 165.558 854.817 157.658C860.955 156.44 867.112 155.074 873.317 153.618C917.193 143.316 962.461 127.568 1007.44 113.274C1038.7 103.34 1070.53 94.7436 1102.47 89.7014C1120.56 86.8434 1138.71 85.1404 1156.97 85.2701C1174.08 85.3894 1191.52 86.7242 1208.51 90.7663C1231.84 96.3148 1249.95 105.083 1265.62 114.67C1305.24 141.682 1328.16 177.808 1362.14 205.038C1397.51 233.385 1436.99 258.929 1470.12 280.826C1473.16 282.832 1476.59 284.699 1479.89 286.646C1494.14 295.076 1508.14 302.047 1508.24 309.629" stroke="white" stroke-miterlimit="10" stroke-linecap="round" stroke-linejoin="round"/>
<path opacity="0.2553" d="M-86.7344 270.212C-86.7344 270.212 -79.7683 265.554 -67.2026 256.734C-41.856 238.94 -7.27072 221.177 35.9924 203.581C45.257 199.813 54.6404 195.905 64.5437 192.185C69.4118 190.369 74.1721 188.476 79.2259 186.886C91.3608 183.067 104.045 179.873 116.429 176.372C132.325 171.878 148.378 167.74 164.672 163.993C263.582 141.131 374.222 134.078 483.767 116.937C556.476 105.56 617.069 96.695 676.451 105.878C688.98 107.815 700.546 112.261 713.405 115.801C732.57 121.08 749.45 130.279 765.321 140.259C791.302 156.595 816.627 174.634 856.18 167.031C862.259 165.859 868.36 164.545 874.505 163.145C918.024 153.245 962.955 138.177 1007.47 124.459C1038.43 114.92 1069.96 106.727 1101.56 101.967C1119.45 99.2726 1137.38 97.693 1155.42 97.9043C1172.33 98.0968 1189.55 99.4735 1206.33 103.484C1229.56 109.037 1247.71 117.734 1263.47 127.212C1303.17 154.074 1326.9 189.752 1361.47 216.549C1397.42 244.417 1437.54 269.308 1471.25 290.184C1474.34 292.098 1477.81 293.87 1481.14 295.726C1495.5 303.737 1509.49 310.145 1509.48 317.129" stroke="white" stroke-miterlimit="10" stroke-linecap="round" stroke-linejoin="round"/>
<path opacity="0.2766" d="M-87.2207 279.289C-87.2207 279.289 -79.965 274.994 -67.0689 266.6C-41.1949 249.762 -5.79643 232.941 38.3059 215.936C47.7079 212.312 57.2138 208.519 67.2396 204.908C72.1708 203.144 76.9943 201.301 82.0852 199.759C94.3687 196.041 107.142 192.949 119.593 189.545C135.638 185.159 151.802 181.147 168.192 177.552C267.733 155.595 378.611 150.416 488.486 132.377C561.118 120.454 620.574 110.242 679.6 118.282C691.924 119.96 703.309 124.216 715.949 127.511C734.85 132.436 751.552 141.125 767.322 150.646C793.088 166.202 818.353 183.716 857.536 176.41C863.555 175.284 869.6 174.02 875.69 172.679C918.853 163.181 963.445 148.791 1007.5 135.652C1038.15 126.507 1069.37 118.719 1100.66 114.242C1118.34 111.713 1136.05 110.257 1153.87 110.545C1170.57 110.813 1187.58 112.229 1204.15 116.209C1227.29 121.766 1245.47 130.392 1261.33 139.761C1301.11 166.472 1325.65 201.702 1360.8 228.066C1397.33 255.457 1438.08 279.689 1472.37 299.548C1475.52 301.369 1479.02 303.049 1482.38 304.812C1496.86 312.405 1510.83 318.253 1510.71 324.636" stroke="white" stroke-miterlimit="10" stroke-linecap="round" stroke-linejoin="round"/>
<path opacity="0.2979" d="M-87.7036 288.368C-87.7036 288.368 -80.1657 284.435 -66.9279 276.468C-40.5378 260.586 -4.31875 244.704 40.6265 228.293C50.1584 224.811 59.7943 221.135 69.9427 217.631C74.937 215.919 79.8199 214.126 84.9554 212.633C97.3873 209.017 110.246 206.025 122.767 202.718C138.957 198.439 155.236 194.556 171.723 191.112C271.896 170.058 383.015 166.757 493.217 147.816C565.77 135.347 624.05 123.794 682.76 130.683C694.873 132.104 706.083 136.167 718.504 139.215C737.144 143.789 753.665 151.965 769.334 161.028C794.885 175.806 820.091 192.792 858.902 185.783C864.865 184.702 870.851 183.49 876.881 182.208C919.692 173.111 963.946 159.401 1007.53 146.839C1037.89 138.09 1068.8 130.704 1099.77 126.511C1117.23 124.145 1134.73 122.812 1152.33 123.181C1168.82 123.524 1185.62 124.98 1201.98 128.928C1225.02 134.489 1243.23 143.044 1259.19 152.304C1299.06 178.864 1324.4 213.649 1360.15 239.578C1397.25 266.49 1438.64 290.063 1473.51 308.907C1476.71 310.635 1480.24 312.221 1483.64 313.893C1498.22 321.067 1512.19 326.352 1511.95 332.137" stroke="white" stroke-miterlimit="10" stroke-linecap="round" stroke-linejoin="round"/>
<path opacity="0.3191" d="M-88.1899 297.446C-88.1899 297.446 -80.3772 293.875 -66.7904 286.334C-39.9028 271.411 -2.85189 256.464 42.9437 240.649C52.6093 237.312 62.3715 233.753 72.6423 230.353C77.6998 228.692 82.6421 226.953 87.8221 225.506C100.403 221.991 113.351 219.101 125.939 215.892C142.277 211.722 158.667 207.965 175.251 204.676C276.051 184.526 387.415 183.105 497.944 163.259C570.419 150.245 627.488 137.355 685.916 143.088C697.81 144.255 708.853 148.124 721.055 150.923C739.435 155.143 755.774 162.809 771.343 171.414C796.675 185.411 821.825 201.874 860.265 195.16C866.169 194.125 872.095 192.964 878.07 191.74C920.527 183.044 964.44 170.012 1007.56 158.03C1037.62 149.676 1068.23 142.694 1098.86 138.782C1116.12 136.579 1133.4 135.37 1150.78 135.817C1167.07 136.234 1183.64 137.732 1199.8 141.648C1222.75 147.216 1240.99 155.697 1257.06 164.847C1297 191.256 1323.14 225.596 1359.49 251.089C1397.17 277.524 1439.18 300.436 1474.64 318.265C1477.89 319.901 1481.46 321.393 1484.89 322.973C1499.58 329.729 1513.54 334.453 1513.2 339.637" stroke="white" stroke-miterlimit="10" stroke-linecap="round" stroke-linejoin="round"/>
<path opacity="0.3404" d="M-88.6729 306.524C-88.6729 306.524 -80.6002 303.317 -66.6532 296.201C-39.2903 282.236 -1.38903 268.22 45.2643 253.006C55.0599 249.811 64.952 246.369 75.3454 243.076C80.4623 241.467 85.4677 239.779 90.6886 238.379C103.414 234.967 116.455 232.18 129.11 229.065C145.596 225.006 162.098 221.372 178.778 218.235C280.209 198.989 391.815 199.454 502.667 178.699C575.068 165.144 630.889 150.923 689.069 155.49C700.736 156.407 711.623 160.074 723.598 162.629C741.723 166.495 757.871 173.651 773.345 181.796C798.454 195.014 823.552 210.95 861.62 204.534C867.468 203.544 873.335 202.433 879.254 201.268C921.355 192.974 964.938 180.622 1007.59 169.215C1037.35 161.256 1067.65 154.676 1097.96 151.051C1115 149.011 1132.07 147.925 1149.23 148.454C1165.3 148.946 1181.67 150.484 1197.61 154.369C1220.47 159.94 1238.74 168.351 1254.9 177.391C1294.92 203.651 1321.88 237.544 1358.81 262.6C1397.06 288.558 1439.7 310.803 1475.75 327.624C1479.06 329.166 1482.65 330.566 1486.13 332.053C1500.92 338.392 1514.87 342.552 1514.41 347.138" stroke="white" stroke-miterlimit="10" stroke-linecap="round" stroke-linejoin="round"/>
<path opacity="0.3617" d="M-89.1587 315.602C-89.1587 315.602 -80.8299 312.761 -66.5153 306.068C-38.6918 293.056 0.0708244 279.976 47.5819 265.362C57.5037 262.309 67.5295 258.987 78.0455 255.8C83.2254 254.244 88.2903 252.608 93.5557 251.254C106.43 247.944 119.56 245.26 132.281 242.239C148.917 238.289 165.53 234.78 182.306 231.797C284.369 213.454 396.22 215.806 507.394 194.139C579.721 180.044 636.779 157.775 692.225 167.893C703.165 169.888 714.397 172.027 726.15 174.334C744.022 177.845 759.977 184.49 775.358 192.179C800.24 204.617 825.29 220.028 862.987 213.906C868.776 212.963 874.587 211.902 880.447 210.795C922.195 202.903 965.439 191.231 1007.62 180.402C1037.08 172.838 1067.07 166.662 1097.06 163.319C1113.9 161.442 1130.74 160.482 1147.68 161.089C1163.55 161.654 1179.7 163.233 1195.43 167.087C1218.2 172.663 1236.51 181 1252.76 189.934C1292.86 216.044 1320.62 249.49 1358.15 274.111C1396.98 299.594 1440.23 321.169 1476.88 336.982C1480.24 338.43 1483.87 339.737 1487.38 341.133C1502.27 347.054 1516.22 350.65 1515.65 354.636" stroke="white" stroke-miterlimit="10" stroke-linecap="round" stroke-linejoin="round"/>
<path opacity="0.383" d="M-89.6414 324.681C-89.6414 324.681 -81.0675 322.201 -66.3778 315.933C-38.1162 303.874 1.5228 291.724 49.8991 277.715C59.9509 274.805 70.1066 271.599 80.7414 268.52C85.9845 267.015 91.1088 265.429 96.415 264.124C109.437 260.917 122.653 258.333 135.441 255.408C152.225 251.569 168.95 248.183 185.823 245.355C288.517 227.916 400.612 232.157 512.11 209.578C584.363 194.945 639.872 170.944 695.371 180.294C706.128 182.105 717.16 183.976 728.69 186.041C746.309 189.196 762.064 195.332 777.352 202.563C802.004 214.223 827.013 229.107 864.335 223.282C870.064 222.385 875.82 221.376 881.624 220.326C923.019 212.838 965.93 201.841 1007.64 191.592C1036.8 184.424 1066.48 178.649 1096.15 175.59C1112.77 173.875 1129.4 173.04 1146.12 173.726C1161.79 174.366 1177.72 175.986 1193.24 179.808C1215.91 185.39 1234.25 193.654 1250.61 202.479C1290.79 228.439 1319.35 261.44 1357.47 285.625C1396.88 310.631 1440.74 331.537 1478 346.343C1481.41 347.697 1485.07 348.914 1488.62 350.218C1503.61 355.722 1517.56 358.756 1516.88 362.141" stroke="white" stroke-miterlimit="10" stroke-linecap="round" stroke-linejoin="round"/>
</g>
</svg>
