<svg width="1400" height="422" viewBox="0 0 1400 422" fill="none" xmlns="http://www.w3.org/2000/svg">
<mask id="mask0_58_1198" style="mask-type:luminance" maskUnits="userSpaceOnUse" x="0" y="-176" width="1502" height="598">
<path d="M0 421.427L1502 421.427V-175.427L0 -175.427V421.427Z" fill="white"/>
</mask>
<g mask="url(#mask0_58_1198)">
<path opacity="0.0213" d="M1585.85 213.053C1585.85 213.053 1582.26 223.417 1572.78 240.146C1553.33 274.472 1526.69 309.225 1491.19 338.655C1483.26 345.229 1474.93 351.547 1466.11 357.525C1461.8 360.445 1457.57 363.432 1452.86 366.032C1442.02 372.013 1429.97 377.308 1417.99 382.922C1403.27 389.824 1388.03 396.642 1372.34 403.283C1277.6 443.412 1166.36 476.914 1057.25 486.129C981.466 492.427 908.181 485.533 840.974 458.785C826.111 452.871 811.695 444.953 796.036 437.278C773.221 426.092 754.024 407.961 736.422 389.571C707.395 359.127 680.468 329.966 635.514 343.253C628.595 345.298 621.649 347.588 614.676 350.086C565.779 367.567 515.65 395.15 464.588 419.722C429.246 436.7 393.403 452.185 357.105 461.787C336.317 467.299 315.384 470.879 294.305 471.693C274.542 472.458 254.365 471.309 234.702 465.994C209.729 459.243 191.385 447.66 176.265 434.599C136.276 399.718 121.034 350.037 92.0609 311.441C61.6264 270.897 27.5736 231.844 -0.707494 192.406C-3.26633 188.836 -6.45237 185.396 -9.51609 181.885C-22.8955 166.477 -37.6137 151.056 -38.8645 134.449" stroke="white" stroke-opacity="0.42" stroke-miterlimit="10" stroke-linecap="round" stroke-linejoin="round"/>
<path opacity="0.0426" d="M1586.35 201.949C1586.35 201.949 1582.42 211.904 1572.64 228.077C1552.56 261.287 1525.1 294.832 1488.8 323.54C1480.72 329.936 1472.27 336.116 1463.33 341.963C1458.95 344.819 1454.67 347.747 1449.91 350.286C1438.92 356.149 1426.78 361.318 1414.73 366.807C1399.86 373.587 1384.5 380.238 1368.71 386.694C1273.32 425.718 1161.8 456.904 1052.38 467.24C976.665 474.196 904.264 468.924 837.723 443.612C823.017 438.018 808.853 430.327 793.412 422.957C770.884 412.201 751.866 394.681 734.356 376.867C705.57 347.353 678.681 318.86 634.114 331.783C627.252 333.774 620.367 336.001 613.456 338.427C564.922 355.412 515.137 382.154 464.561 406.034C429.522 422.517 394 437.529 358.038 446.775C337.468 452.093 316.753 455.514 295.903 456.233C276.355 456.906 256.396 455.711 236.951 450.432C212.07 443.678 193.695 432.18 178.472 419.252C138.399 384.555 122.319 335.425 92.7454 297.355C61.7066 257.4 26.9959 219.115 -1.87044 180.954C-4.48666 177.494 -7.71484 174.172 -10.8053 170.774C-24.3492 155.882 -39.0023 141.144 -40.1383 125.27" stroke="white" stroke-opacity="0.42" stroke-miterlimit="10" stroke-linecap="round" stroke-linejoin="round"/>
<path opacity="0.0638" d="M1586.85 190.844C1586.85 190.844 1582.58 200.387 1572.5 216.008C1551.78 248.095 1523.5 280.437 1486.41 308.426C1478.17 314.642 1469.61 320.684 1460.55 326.401C1456.11 329.193 1451.76 332.059 1446.96 334.539C1435.82 340.287 1423.58 345.331 1411.46 350.695C1396.45 357.351 1380.96 363.839 1365.08 370.108C1269.04 408.027 1157.29 437.101 1047.51 448.356C971.892 456.108 900.355 452.325 834.472 428.444C819.926 423.172 806.011 415.707 790.784 408.641C768.539 398.315 749.633 381.44 732.287 364.169C703.627 335.637 676.895 307.755 632.71 320.318C625.909 322.253 619.082 324.415 612.232 326.772C564.061 343.258 514.621 369.164 464.53 392.35C429.797 408.339 394.593 422.878 358.968 431.768C338.616 436.891 318.122 440.157 297.498 440.779C278.164 441.362 258.427 440.116 239.196 434.875C214.411 428.119 196.005 416.705 180.679 403.909C140.526 369.397 123.605 320.817 93.4302 283.275C61.7908 243.908 26.4183 206.394 -3.03321 169.506C-5.70679 166.157 -8.96925 162.953 -12.0942 159.664C-25.7681 145.279 -40.3906 131.232 -41.4157 116.092" stroke="white" stroke-opacity="0.42" stroke-miterlimit="10" stroke-linecap="round" stroke-linejoin="round"/>
<path opacity="0.0851" d="M1587.35 179.74C1587.35 179.74 1582.75 188.866 1572.36 203.942C1551.02 234.902 1521.92 266.044 1484.03 293.314C1475.64 299.351 1466.96 305.253 1457.77 310.842C1453.27 313.57 1448.86 316.377 1444.01 318.796C1432.72 324.426 1420.4 329.344 1408.2 334.585C1393.04 341.116 1377.43 347.442 1361.45 353.523C1264.76 390.336 1152.77 417.153 1042.64 429.47C967.104 437.92 896.477 435.732 831.225 413.273C816.844 408.324 803.17 401.084 788.161 394.32C766.198 384.424 747.453 368.171 730.222 351.465C701.769 323.883 675.113 296.649 631.311 308.848C624.571 310.727 617.801 312.828 611.008 315.113C563.201 331.1 514.101 356.169 464.5 378.661C430.073 394.157 395.19 408.219 359.898 416.756C339.764 421.682 319.492 424.794 299.094 425.316C279.973 425.808 260.455 424.515 241.445 419.31C216.756 412.552 198.316 401.222 182.89 388.562C142.653 354.232 124.894 306.205 94.1189 269.189C61.8752 230.409 25.8448 193.667 -4.18807 158.054C-6.91902 154.817 -10.2161 151.726 -13.3716 148.552C-27.1794 134.674 -41.7712 121.321 -42.6777 106.913" stroke="white" stroke-opacity="0.42" stroke-miterlimit="10" stroke-linecap="round" stroke-linejoin="round"/>
<path opacity="0.1064" d="M1587.85 168.637C1587.85 168.637 1582.91 177.345 1572.21 191.874C1550.25 221.703 1520.34 251.647 1481.64 278.203C1473.1 284.061 1464.31 289.824 1454.98 295.28C1450.42 297.947 1445.95 300.693 1441.05 303.05C1429.61 308.562 1417.2 313.355 1404.93 318.473C1389.62 324.881 1373.89 331.041 1357.81 336.937C1260.47 372.642 1148.23 397.202 1037.77 410.586C962.311 419.73 892.614 419.147 827.97 398.103C813.753 393.476 800.324 386.462 785.533 380.002C763.854 370.536 745.272 354.908 728.152 338.765C699.906 312.129 673.327 285.545 629.907 297.381C623.225 299.203 616.516 301.24 609.784 303.456C562.344 318.944 513.657 343.248 464.469 364.978C430.394 380.03 395.752 393.515 360.827 401.75C340.892 406.451 320.861 409.437 300.688 409.862C281.782 410.261 262.486 408.92 243.69 403.754C219.093 396.99 200.626 385.748 185.097 373.221C144.779 339.074 126.183 291.595 94.8071 255.11C61.963 216.917 25.271 180.951 -5.3471 146.608C-8.13543 143.481 -11.467 140.507 -14.6569 137.446C-28.5947 124.077 -43.1559 111.412 -43.9476 97.7388" stroke="white" stroke-opacity="0.42" stroke-miterlimit="10" stroke-linecap="round" stroke-linejoin="round"/>
<path opacity="0.1277" d="M1588.35 157.533C1588.35 157.533 1583.08 165.819 1572.08 179.805C1549.5 208.495 1518.78 237.25 1479.25 263.089C1470.57 268.768 1461.65 274.39 1452.2 279.718C1447.57 282.321 1443.04 285.006 1438.11 287.304C1426.52 292.696 1414.01 297.369 1401.67 302.361C1386.21 308.647 1370.36 314.643 1354.18 320.352C1256.19 354.951 1143.71 377.247 1032.91 391.703C957.526 401.538 888.785 402.569 824.723 382.935C810.678 378.631 797.482 371.842 782.909 365.687C761.513 356.651 743.092 341.647 726.087 326.067C698.047 300.381 671.544 274.444 628.507 285.917C621.886 287.685 615.238 289.655 608.56 291.803C561.483 306.791 513.152 330.274 464.439 351.294C430.677 365.864 396.345 378.851 361.756 386.743C342.035 391.242 322.23 394.078 302.287 394.408C283.595 394.718 264.52 393.328 245.939 388.197C221.437 381.431 202.936 370.275 187.308 357.879C146.906 323.917 127.471 276.988 95.4956 241.032C62.0509 203.426 24.6934 168.24 -6.50608 135.164C-9.34796 132.149 -12.7217 129.288 -15.9422 126.342C-30.0062 113.483 -44.5406 101.509 -45.2215 88.5672" stroke="white" stroke-opacity="0.42" stroke-miterlimit="10" stroke-linecap="round" stroke-linejoin="round"/>
<path opacity="0.1489" d="M1588.84 146.431C1588.84 146.431 1583.24 154.293 1571.93 167.739C1548.74 195.287 1517.21 222.857 1476.86 247.977C1468.03 253.477 1458.99 258.961 1449.42 264.159C1444.73 266.697 1440.13 269.32 1435.15 271.56C1423.41 276.834 1410.81 281.381 1398.4 286.251C1382.79 292.411 1366.83 298.246 1350.54 303.766C1251.91 337.26 1139.17 357.288 1028.03 372.816C952.733 383.339 884.972 385.991 821.467 367.765C807.598 363.785 794.632 357.218 780.277 351.368C759.16 342.762 740.908 328.382 724.01 313.365C696.176 288.629 669.75 263.337 627.095 274.449C620.536 276.161 613.953 278.08 607.328 280.145C560.661 294.704 512.64 317.294 464.4 337.608C430.952 351.693 396.926 364.187 362.678 371.734C343.171 376.033 323.592 378.718 303.874 378.948C285.393 379.166 266.54 377.727 248.177 372.635C223.77 365.866 205.239 354.795 189.507 342.534C149.025 308.756 128.753 262.377 96.1723 226.949C62.1271 189.931 24.1081 155.526 -7.6728 123.714C-10.5721 120.809 -13.9762 118.066 -17.235 115.233C-31.4291 102.883 -45.9368 91.5995 -46.4991 79.3899" stroke="white" stroke-opacity="0.42" stroke-miterlimit="10" stroke-linecap="round" stroke-linejoin="round"/>
<path opacity="0.1702" d="M1589.34 135.328C1589.34 135.328 1583.42 142.765 1571.79 155.67C1548 182.073 1515.65 208.46 1474.48 232.864C1465.5 238.184 1456.34 243.527 1446.64 248.597C1441.88 251.072 1437.23 253.636 1432.2 255.814C1420.3 260.968 1407.62 265.395 1395.13 270.14C1379.38 276.177 1363.29 281.848 1346.91 287.181C1247.62 319.569 1134.64 337.324 1023.16 353.933C947.948 365.139 881.189 369.421 818.216 352.597C804.531 348.94 791.786 342.599 777.65 337.053C756.812 328.877 738.724 315.121 721.94 300.668C694.317 276.88 667.964 252.236 625.691 262.984C619.189 264.64 612.668 266.498 606.1 268.492C559.804 282.562 512.131 304.319 464.366 323.925C431.231 337.527 397.511 349.524 363.604 356.728C344.315 360.825 324.953 363.361 305.466 363.494C287.198 363.622 268.567 362.135 250.422 357.078C226.111 350.304 207.545 339.32 191.714 327.193C151.147 293.599 130.042 247.768 96.8571 212.869C62.2153 176.437 23.5305 142.816 -8.83553 112.267C-11.7922 109.475 -15.2306 106.847 -18.52 104.127C-32.8365 92.2859 -47.3214 81.6911 -47.769 70.216" stroke="white" stroke-opacity="0.42" stroke-miterlimit="10" stroke-linecap="round" stroke-linejoin="round"/>
<path opacity="0.1915" d="M1589.84 124.223C1589.84 124.223 1583.6 131.227 1571.65 143.601C1547.26 168.852 1514.1 194.064 1472.09 217.751C1462.97 222.895 1453.68 228.098 1443.86 233.034C1439.03 235.445 1434.32 237.948 1429.25 240.067C1417.2 245.101 1404.41 249.385 1391.87 254.024C1375.95 259.913 1359.76 265.446 1343.28 270.592C1243.34 301.875 1130.12 317.352 1018.3 335.046C943.163 346.933 877.44 352.85 814.969 337.426C801.467 334.092 788.944 327.975 775.03 322.732C754.467 314.985 736.555 301.854 719.879 287.963C692.47 265.128 666.181 241.129 624.295 251.516C617.854 253.116 611.39 254.912 604.884 256.837C558.955 270.418 511.63 291.341 464.343 310.243C431.522 323.361 398.111 334.864 364.541 341.723C345.466 345.62 326.33 348.006 307.068 348.041C289.015 348.077 270.606 346.542 252.675 341.523C228.459 334.744 209.863 323.847 193.928 311.853C153.281 278.443 131.342 233.16 97.5493 198.791C62.3069 162.945 22.9643 130.114 -9.99081 100.823C-13.0048 98.1431 -16.4778 95.6301 -19.8016 93.0223C-34.2443 81.6905 -48.7061 71.7867 -49.0389 61.0435" stroke="white" stroke-opacity="0.42" stroke-miterlimit="10" stroke-linecap="round" stroke-linejoin="round"/>
<path opacity="0.2128" d="M1590.34 113.119C1590.34 113.119 1583.78 119.691 1571.51 131.532C1546.53 155.624 1512.56 179.669 1469.7 202.637C1460.44 207.602 1451.03 212.664 1441.08 217.473C1436.19 219.822 1431.42 222.261 1426.3 224.321C1414.1 229.234 1401.22 233.393 1388.6 237.912C1372.54 243.67 1356.23 249.044 1339.65 254.004C1239.06 284.181 1125.59 297.379 1013.43 316.157C938.378 328.725 873.723 336.28 811.722 322.253C798.415 319.244 786.099 313.35 772.406 308.411C752.119 301.094 734.379 288.591 717.813 275.26C690.618 253.377 664.399 230.023 622.892 240.047C616.512 241.592 610.109 243.325 603.66 245.178C558.098 258.268 511.121 278.362 464.313 296.555C431.801 309.189 398.704 320.198 365.47 326.711C346.61 330.407 327.699 332.641 308.663 332.579C290.824 332.526 272.637 330.939 254.92 325.959C230.8 319.177 212.169 308.365 196.135 296.503C155.404 263.278 132.631 218.542 98.234 184.703C62.395 149.443 22.3908 117.403 -11.1495 89.3681C-14.2208 86.8013 -17.7283 84.4033 -21.0866 81.9082C-35.6517 71.0882 -50.0906 61.8703 -50.3086 51.8615" stroke="white" stroke-opacity="0.42" stroke-miterlimit="10" stroke-linecap="round" stroke-linejoin="round"/>
<path opacity="0.234" d="M1590.84 102.015C1590.84 102.015 1583.97 108.152 1571.37 119.466C1545.82 142.396 1511.02 165.279 1467.32 187.526C1457.91 192.314 1448.38 197.235 1438.3 201.913C1433.35 204.199 1428.51 206.576 1423.35 208.577C1411 213.368 1398.03 217.404 1385.34 221.803C1369.12 227.43 1352.7 232.648 1336.02 237.421C1234.78 266.49 1121.06 277.405 1008.56 297.276C933.59 310.52 870.04 319.717 808.471 307.088C795.359 304.398 783.249 298.733 769.778 294.098C749.766 287.211 732.199 275.332 715.744 262.564C688.764 241.631 662.613 218.921 621.488 228.584C615.165 230.074 608.824 231.745 602.432 233.526C557.238 246.127 510.609 265.39 464.278 282.874C432.08 295.024 399.29 305.54 366.396 311.707C347.753 315.203 329.065 317.286 310.254 317.128C292.626 316.982 274.66 315.349 257.161 310.405C233.137 303.618 214.476 292.893 198.339 281.167C157.527 248.126 133.92 203.938 98.9188 170.631C62.483 135.957 21.817 104.713 -12.3123 77.9289C-15.441 75.4747 -18.979 73.192 -22.3717 70.8094C-37.0554 60.4987 -51.4751 51.9718 -51.5784 42.6975" stroke="white" stroke-opacity="0.42" stroke-miterlimit="10" stroke-linecap="round" stroke-linejoin="round"/>
<path opacity="0.2553" d="M1591.34 90.9114C1591.34 90.9114 1584.17 96.608 1571.22 107.397C1545.11 129.163 1509.49 150.89 1464.93 172.412C1455.38 177.021 1445.72 181.801 1435.52 186.351C1430.5 188.573 1425.6 190.889 1420.39 192.834C1407.89 197.504 1394.83 201.412 1382.07 205.693C1365.7 211.19 1349.16 216.252 1332.38 220.835C1230.5 248.799 1116.53 257.426 1003.69 278.393C928.797 292.309 866.383 303.152 805.216 291.92C792.311 289.55 780.396 284.112 767.151 279.782C747.41 273.326 730.022 262.073 713.675 249.866C686.912 229.884 660.827 207.82 620.084 217.12C613.823 218.553 607.539 220.16 601.209 221.872C556.381 233.982 510.1 252.412 464.248 269.193C432.36 280.86 399.883 290.881 367.325 296.703C348.897 299.999 330.434 301.931 311.849 301.673C294.435 301.438 276.691 299.754 259.41 294.848C235.478 288.056 216.786 277.418 200.549 265.825C159.654 232.968 135.217 189.328 99.6073 156.55C62.5749 122.463 21.2509 92.0169 -13.4713 66.482C-16.6536 64.1404 -20.2297 61.9728 -23.6568 59.7029C-38.4552 49.904 -52.8597 42.0654 -52.852 33.5231" stroke="white" stroke-opacity="0.42" stroke-miterlimit="10" stroke-linecap="round" stroke-linejoin="round"/>
<path opacity="0.2766" d="M1591.84 79.8074C1591.84 79.8074 1584.37 85.0612 1571.08 95.3284C1544.43 115.924 1507.97 136.5 1462.54 157.3C1452.86 161.733 1443.07 166.372 1432.74 170.789C1427.66 172.947 1422.69 175.201 1417.45 177.087C1404.79 181.635 1391.64 185.417 1378.81 189.581C1362.29 194.945 1345.64 199.853 1328.75 204.25C1226.22 231.108 1112.01 237.442 998.831 259.506C924.016 274.091 862.772 286.582 801.972 276.747C789.277 274.695 777.55 269.489 764.53 265.459C745.062 259.435 727.858 248.807 711.613 237.16C685.073 218.133 659.048 196.711 618.688 205.647C612.488 207.024 606.261 208.57 599.988 210.21C555.528 221.828 509.595 239.43 464.221 255.501C432.643 266.687 400.483 276.212 368.255 281.689C350.044 284.783 331.804 286.564 313.444 286.211C296.244 285.883 278.722 284.151 261.656 279.283C237.823 272.486 219.092 261.935 202.756 250.475C161.781 217.803 136.506 174.71 100.292 142.462C62.6667 108.958 20.6887 79.3185 -14.6302 55.0273C-17.8699 52.8009 -21.4766 50.7459 -24.942 48.5886C-39.8551 39.3015 -54.2482 32.1488 -54.122 24.3409" stroke="white" stroke-opacity="0.42" stroke-miterlimit="10" stroke-linecap="round" stroke-linejoin="round"/>
<path opacity="0.2979" d="M1592.34 68.7029C1592.34 68.7029 1584.58 73.5141 1570.94 83.2593C1543.76 102.686 1506.45 122.112 1460.15 142.186C1450.33 146.444 1440.41 150.94 1429.95 155.227C1424.81 157.32 1419.78 159.513 1414.49 161.341C1401.69 165.763 1388.44 169.422 1375.54 173.468C1358.87 178.702 1342.1 183.451 1325.12 187.664C1221.93 213.416 1107.47 217.454 993.958 240.622C919.224 255.875 859.192 270.006 798.717 261.579C786.241 259.841 774.693 254.871 761.899 251.143C742.698 245.549 725.681 235.547 709.54 224.461C683.222 206.386 657.258 185.609 617.281 194.182C611.138 195.505 604.972 196.987 598.761 198.555C554.664 209.682 509.079 226.452 464.183 241.817C432.91 252.52 401.068 261.553 369.177 266.682C351.185 269.576 333.162 271.206 315.032 270.756C298.046 270.336 280.746 268.555 263.893 263.726C240.156 256.924 221.395 246.46 204.956 235.133C163.896 202.645 137.795 160.097 100.969 128.382C62.7471 95.4637 20.119 66.6301 -15.8004 43.5801C-19.0936 41.4662 -22.735 39.5264 -26.2347 37.4817C-41.2588 28.7065 -55.6404 22.2421 -55.3994 15.1661" stroke="white" stroke-opacity="0.42" stroke-miterlimit="10" stroke-linecap="round" stroke-linejoin="round"/>
<path opacity="0.3191" d="M1592.84 57.5992C1592.84 57.5992 1584.79 61.9676 1570.8 71.1907C1543.1 89.4449 1504.94 107.727 1457.77 127.072C1447.81 131.154 1437.75 135.507 1427.17 139.665C1421.96 141.697 1416.87 143.824 1411.54 145.595C1398.58 149.894 1385.24 153.428 1372.28 157.354C1355.45 162.454 1338.56 167.05 1321.48 171.073C1217.65 195.72 1102.94 197.458 989.089 221.734C914.435 237.651 855.65 253.418 795.466 246.406C783.215 244.978 771.84 240.246 759.271 236.822C740.338 231.66 723.509 222.284 707.471 211.758C681.378 194.638 655.472 174.5 615.877 182.712C609.795 183.979 603.691 185.399 597.537 186.896C553.803 197.532 508.57 213.473 464.152 228.129C433.19 238.347 401.661 246.887 370.106 251.673C352.332 254.368 334.531 255.847 316.627 255.299C299.855 254.79 282.777 252.957 266.138 248.167C242.497 241.357 223.705 230.982 207.159 219.791C166.019 187.487 139.084 145.485 101.65 114.302C62.8351 81.9672 19.5607 53.9423 -16.9669 32.1334C-20.3174 30.1322 -23.9895 28.3075 -27.5275 26.3754C-42.6587 18.112 -57.0364 12.3334 -56.6807 5.99191" stroke="white" stroke-opacity="0.42" stroke-miterlimit="10" stroke-linecap="round" stroke-linejoin="round"/>
<path opacity="0.3404" d="M1593.34 46.4955C1593.34 46.4955 1585.02 50.4186 1570.66 59.1221C1542.47 76.2043 1503.43 93.3478 1455.37 111.958C1445.28 115.866 1435.1 120.075 1424.39 124.103C1419.12 126.071 1413.96 128.137 1408.59 129.849C1395.48 134.023 1382.04 137.431 1369.01 141.242C1352.03 146.206 1335.03 150.652 1317.85 154.488C1213.37 178.029 1098.41 177.461 984.223 202.848C909.646 219.428 852.147 236.822 792.219 231.236C780.201 230.115 768.987 225.629 756.651 222.504C737.982 217.775 721.348 209.023 705.41 199.06C679.546 182.892 653.693 163.399 614.481 171.248C608.457 172.458 602.413 173.817 596.317 175.242C552.95 185.387 508.058 200.496 464.125 214.448C433.473 224.183 402.262 232.231 371.039 236.666C353.483 239.162 335.904 240.49 318.229 239.842C301.671 239.241 284.815 237.36 268.395 232.608C244.849 225.793 226.023 215.505 209.377 204.447C168.157 172.327 140.388 130.87 102.35 100.222C62.9421 68.4706 19.025 41.262 -18.1107 20.6867C-21.5148 18.8006 -25.2212 17.0885 -28.7974 15.269C-44.0357 7.51484 -58.4059 2.42733 -57.9354 -3.18227" stroke="white" stroke-opacity="0.42" stroke-miterlimit="10" stroke-linecap="round" stroke-linejoin="round"/>
<path opacity="0.3617" d="M1593.84 35.3914C1593.84 35.3914 1585.26 38.8667 1570.51 47.0533C1541.86 62.9685 1501.93 78.9681 1452.99 96.8436C1442.77 100.577 1432.44 104.641 1421.61 108.539C1416.27 110.443 1411.06 112.444 1405.63 114.1C1392.37 118.148 1378.85 121.432 1365.74 125.127C1348.61 129.959 1331.49 134.25 1314.21 137.9C1209.08 160.335 1093.87 157.459 979.354 183.961C904.853 201.202 846.081 228.441 788.968 216.065C777.7 213.624 766.129 211.009 754.024 208.186C735.614 203.892 719.179 195.764 703.336 186.359C677.706 171.145 651.903 152.295 613.073 159.783C607.11 160.937 601.124 162.234 595.089 163.588C552.086 173.241 507.541 187.518 464.091 200.764C433.744 210.016 402.851 217.57 371.965 221.66C354.623 223.955 337.269 225.13 319.82 224.388C303.473 223.697 286.838 221.765 270.636 217.051C247.186 210.231 228.326 200.033 211.58 189.105C170.276 157.167 141.681 116.257 103.03 86.1413C63.03 54.9712 18.4781 28.5816 -19.2772 9.23974C-22.7349 7.46883 -26.4719 5.86936 -30.0864 4.16242C-45.428 -3.0799 -59.794 -7.47897 -59.2088 -12.3541" stroke="white" stroke-opacity="0.42" stroke-miterlimit="10" stroke-linecap="round" stroke-linejoin="round"/>
<path opacity="0.383" d="M1594.34 24.2872C1594.34 24.2872 1585.5 27.3197 1570.37 34.9868C1541.26 49.7376 1500.43 64.5984 1450.6 81.7343C1440.25 85.2941 1429.79 89.2146 1418.83 92.9816C1413.43 94.8217 1408.15 96.7615 1402.69 98.3584C1389.27 102.282 1375.66 105.442 1362.49 109.02C1345.2 113.716 1327.97 117.856 1310.59 121.316C1204.81 142.647 1089.35 137.459 974.497 165.077C900.073 182.976 842.895 212.334 785.728 200.897C774.647 198.681 763.284 196.393 751.408 193.867C733.259 190.008 717.03 182.502 701.283 173.658C675.889 159.396 650.129 141.19 611.685 148.315C605.783 149.413 599.855 150.646 593.876 151.931C551.237 161.09 507.036 174.541 464.072 187.078C434.031 195.846 403.459 202.909 372.906 206.65C355.782 208.749 338.65 209.77 321.427 208.93C305.294 208.147 288.885 206.167 272.893 201.491C249.542 194.663 230.648 184.555 213.799 173.76C172.41 142.007 142.989 101.642 103.727 72.0583C63.1334 41.4716 17.9541 15.9009 -20.4285 -2.21001C-23.9397 -3.86576 -27.7111 -5.35514 -31.3638 -6.94947C-46.801 -13.6825 -61.1747 -17.3933 -60.4748 -21.5339" stroke="white" stroke-opacity="0.42" stroke-miterlimit="10" stroke-linecap="round" stroke-linejoin="round"/>
<path opacity="0.4043" d="M1594.84 13.1833C1594.84 13.1833 1585.76 15.7732 1570.23 22.9183C1540.69 36.5098 1498.94 50.2292 1448.21 66.6204C1437.73 70.0087 1427.13 73.7808 1416.05 77.4199C1410.59 79.1985 1405.24 81.0718 1399.73 82.6123C1386.17 86.4075 1372.46 89.4427 1359.22 92.9077C1341.78 97.4681 1324.44 101.455 1306.96 104.731C1200.53 124.953 1084.81 117.452 969.628 146.194C895.276 164.747 839.796 196.179 782.477 185.73C771.58 183.744 760.423 181.778 748.78 179.552C730.891 176.13 714.869 169.244 699.21 160.96C674.061 147.65 648.339 130.089 610.277 136.85C604.433 137.895 598.566 139.064 592.649 140.277C550.372 148.945 506.516 161.564 464.037 173.395C434.303 181.679 404.052 188.25 373.832 191.646C356.929 193.545 340.016 194.415 323.018 193.476C307.099 192.603 290.912 190.571 275.135 185.934C251.879 179.099 232.954 169.08 216.002 158.421C174.533 126.852 144.282 87.0294 104.408 57.9808C63.2215 27.9751 17.4224 3.22835 -21.5913 -13.6542C-25.1561 -15.1973 -28.9579 -16.5716 -32.6527 -18.0533C-48.1855 -24.2796 -62.5632 -27.2968 -61.7485 -30.7056" stroke="white" stroke-opacity="0.42" stroke-miterlimit="10" stroke-linecap="round" stroke-linejoin="round"/>
<path opacity="0.4255" d="M1595.34 2.07893C1595.34 2.07893 1586.03 4.23115 1570.09 10.849C1540.13 23.2889 1497.45 35.8619 1445.83 51.5058C1435.21 54.7226 1424.48 58.3489 1413.27 61.8575C1407.74 63.5721 1402.34 65.3814 1396.78 66.8657C1383.06 70.5355 1369.27 73.4452 1355.96 76.7951C1338.36 81.2198 1320.9 85.0329 1303.32 88.1448C1196.19 107.116 1080.27 97.442 964.759 127.31C890.48 146.516 836.798 179.961 779.23 170.561C768.512 168.811 757.566 167.165 746.16 165.236C728.527 162.252 712.715 155.985 697.148 148.261C672.244 135.903 646.56 118.985 608.881 125.385C603.098 126.373 597.288 127.481 591.429 128.622C549.512 136.796 506.004 148.586 464.011 159.713C434.578 167.511 404.652 173.596 374.765 176.642C358.081 178.341 341.385 179.058 324.617 178.024C308.912 177.059 292.947 174.978 277.388 170.38C254.232 163.536 235.268 153.607 218.217 143.081C176.667 111.696 145.586 72.4164 105.1 43.9027C63.321 14.4779 16.9098 -9.44478 -22.7464 -25.0989C-26.3609 -26.5269 -30.1973 -27.7886 -33.9304 -29.1577C-49.555 -34.8773 -63.9402 -37.2036 -63.0108 -39.8778" stroke="white" stroke-opacity="0.42" stroke-miterlimit="10" stroke-linecap="round" stroke-linejoin="round"/>
<path opacity="0.4468" d="M1595.84 -9.02521C1595.84 -9.02521 1586.31 -7.30807 1569.95 -1.21992C1539.6 10.0786 1495.97 21.5 1443.44 36.3941C1432.69 39.4394 1421.82 42.9172 1410.49 46.2978C1404.89 47.9485 1399.42 49.6938 1393.83 51.1218C1379.96 54.6636 1366.07 57.4505 1352.68 60.6853C1334.94 64.9718 1317.36 68.6339 1299.68 71.5589C1191.89 89.4114 1075.71 77.4296 959.882 108.423C885.676 128.279 833.887 163.672 775.971 155.388C765.422 153.878 754.693 152.547 743.524 150.915C726.144 148.374 710.554 142.72 695.071 135.557C670.42 124.151 644.766 107.878 607.466 113.915C601.744 114.847 595.995 115.893 590.193 116.963C548.64 124.643 505.472 135.604 463.969 146.024C434.842 153.338 405.238 158.933 375.683 161.63C359.217 163.132 342.743 163.695 326.2 162.564C310.706 161.507 294.967 159.378 279.621 154.817C256.561 147.967 237.563 138.127 220.412 127.734C178.779 96.5334 146.872 57.796 105.777 29.8171C63.409 0.970667 16.3898 -22.1228 -23.9167 -36.5512C-27.5847 -37.864 -31.448 -39.0156 -35.227 -40.2696C-50.9433 -45.4851 -65.3401 -47.1152 -64.2959 -49.0576" stroke="white" stroke-opacity="0.42" stroke-miterlimit="10" stroke-linecap="round" stroke-linejoin="round"/>
<path opacity="0.4681" d="M1596.34 -20.1291C1596.34 -20.1291 1586.59 -18.8419 1569.81 -13.2886C1539.08 -3.1212 1494.48 7.14343 1441.05 21.28C1430.18 24.1565 1419.16 27.4859 1407.71 30.7334C1402.05 32.3201 1396.52 34.0015 1390.88 35.3732C1376.85 38.787 1362.87 41.4485 1349.42 44.5681C1331.52 48.7164 1313.82 52.2249 1296.05 54.9683C1187.61 71.6999 1071.17 57.4072 955.013 89.5344C880.875 110.041 831.072 147.296 772.72 140.215C762.335 138.956 751.828 137.933 740.897 136.592C723.769 134.493 708.401 129.454 693.002 122.852C668.61 112.395 642.98 96.7691 606.062 102.443C600.398 103.318 594.706 104.301 588.969 105.304C547.775 112.49 504.952 122.619 463.938 132.336C435.113 139.166 405.834 144.272 376.612 146.618C360.364 147.923 344.112 148.333 327.795 147.102C312.515 145.955 296.997 143.772 281.866 139.253C258.906 132.395 239.873 122.644 222.619 112.385C180.905 81.3682 148.168 43.1733 106.461 15.7318C63.5005 -12.5337 15.8579 -34.7622 -25.0759 -48.0031C-28.7937 -49.1956 -32.6912 -50.2423 -36.5122 -51.3811C-52.3128 -56.0924 -66.7249 -57.0265 -65.566 -58.237" stroke="white" stroke-opacity="0.42" stroke-miterlimit="10" stroke-linecap="round" stroke-linejoin="round"/>
<path opacity="0.4894" d="M1596.83 -31.2332C1596.83 -31.2332 1586.89 -30.3683 1569.67 -25.3575C1538.57 -16.3084 1493 -7.20814 1438.66 6.16583C1427.66 8.87339 1416.51 12.0543 1404.92 15.1713C1399.2 16.694 1393.61 18.3114 1387.92 19.6268C1373.75 22.9101 1359.68 25.4514 1346.16 28.4558C1328.11 32.4659 1310.29 35.8235 1292.42 38.3826C1183.33 53.9932 1066.62 37.3871 950.147 70.6506C876.079 91.8017 828.333 130.831 769.472 125.047C759.252 124.044 748.967 123.325 738.276 122.276C721.397 120.623 706.258 116.19 690.94 110.153C666.812 100.641 641.201 85.665 604.666 90.9777C599.062 91.7992 593.429 92.7179 587.749 93.6494C546.918 100.339 504.435 109.639 463.911 118.655C435.389 124.999 406.438 129.618 377.541 131.614C361.515 132.72 345.481 132.978 329.39 131.65C314.324 130.411 299.028 128.18 284.115 123.701C261.254 116.833 242.187 107.174 224.829 97.0505C183.031 66.2182 149.468 28.5632 107.15 1.65918C63.5997 -26.028 15.4062 -47.4811 -26.2351 -59.4424C-29.9988 -60.5249 -33.9307 -61.4539 -37.7938 -62.4801C-53.6785 -66.6924 -68.106 -66.9278 -66.8324 -67.4038" stroke="white" stroke-opacity="0.42" stroke-miterlimit="10" stroke-linecap="round" stroke-linejoin="round"/>
<path opacity="0.5106" d="M1597.33 -42.3377C1597.33 -42.3377 1587.19 -41.8873 1569.52 -37.4242C1538.08 -29.4782 1491.53 -21.5551 1436.28 -8.94626C1425.15 -6.40761 1413.86 -3.37762 1402.14 -0.38857C1396.36 1.07013 1390.7 2.62353 1384.97 3.88262C1370.65 7.03546 1356.49 9.45377 1342.89 12.3456C1324.69 16.2175 1306.76 19.4242 1288.79 21.7965C1179.05 36.2862 1062.08 17.3641 945.282 51.7638C871.279 73.5598 825.197 103.266 766.225 109.876C756.238 110.995 746.106 108.714 735.652 107.957C719.022 106.752 704.116 102.926 688.874 97.4518C665.015 88.8838 639.419 74.5604 603.266 79.5097C597.724 80.2749 592.151 81.1322 586.529 81.9921C546.058 88.1877 503.915 96.6584 463.884 104.968C435.66 110.826 407.039 114.959 378.475 116.604C362.666 117.513 346.855 117.615 330.989 116.192C316.137 114.864 301.063 112.581 286.364 108.139C263.602 101.262 244.497 91.6938 227.04 81.703C185.162 51.0549 150.769 13.9399 107.838 -12.4267C63.6992 -39.5355 14.9169 -60.1543 -27.3938 -70.8949C-31.2072 -71.8623 -35.1697 -72.6838 -39.0787 -73.5923C-55.0476 -77.3081 -69.4943 -76.8398 -68.1059 -76.5839" stroke="white" stroke-opacity="0.42" stroke-miterlimit="10" stroke-linecap="round" stroke-linejoin="round"/>
<path opacity="0.5319" d="M1597.83 -53.441C1597.83 -53.441 1587.49 -53.3975 1569.38 -49.4923C1537.59 -42.6364 1490.05 -35.8982 1433.89 -24.0597C1422.63 -21.6873 1411.2 -18.8083 1399.36 -15.9498C1393.51 -14.5525 1387.8 -13.0682 1382.02 -11.8603C1367.54 -8.838 1353.29 -6.54246 1339.63 -3.76325C1321.28 -0.032053 1303.23 3.02609 1285.16 5.21414C1174.77 18.5804 1057.52 -2.66025 940.413 32.8834C866.475 55.3218 821.892 86.4278 762.974 94.7117C753.251 96.0783 743.222 93.0278 733.025 93.6446C716.67 94.6324 701.974 89.6626 686.805 84.7568C663.221 77.128 637.632 63.4623 601.862 68.0483C596.377 68.7572 590.862 69.5505 585.305 70.3413C545.193 76.0404 503.391 83.6794 463.853 91.2877C435.932 96.6593 407.639 100.309 379.404 101.601C363.818 102.315 348.22 102.261 332.584 100.738C317.946 99.3182 303.094 96.9842 288.609 92.5851C265.947 85.6985 246.807 76.2221 229.247 66.3643C187.285 35.9005 152.069 -0.674435 108.523 -26.5037C63.791 -53.0366 14.4424 -72.8289 -28.5529 -82.3386C-32.4161 -83.1933 -36.4129 -83.9022 -40.364 -84.6955C-56.4131 -87.9149 -70.8789 -86.7453 -69.3757 -85.755" stroke="white" stroke-opacity="0.42" stroke-miterlimit="10" stroke-linecap="round" stroke-linejoin="round"/>
<path opacity="0.5532" d="M1598.33 -64.5452C1598.33 -64.5452 1587.8 -64.9009 1569.24 -61.5613C1537.12 -55.7802 1488.57 -50.2371 1431.5 -39.1715C1420.12 -36.9655 1408.54 -34.2401 1396.58 -31.5121C1390.67 -30.1788 1384.89 -28.7584 1379.07 -27.6068C1364.44 -24.715 1350.1 -22.5449 1336.36 -19.8757C1317.86 -16.2827 1299.7 -13.3755 1281.53 -11.3717C1170.49 0.871145 1052.97 -22.6881 935.548 13.9969C861.675 37.0776 818.576 69.5401 759.727 79.5411C750.268 81.1482 740.296 78.456 730.401 79.3261C714.398 80.7311 699.841 76.3933 684.74 72.0556C661.435 65.3635 635.847 52.3581 600.463 56.5832C595.039 57.2358 589.585 57.9651 584.081 58.6868C544.329 63.8895 502.867 70.6993 463.823 77.6038C436.2 82.4892 408.24 85.6548 380.334 86.594C364.965 87.1109 349.589 86.9037 334.183 85.2837C319.755 83.7739 305.133 81.3888 290.859 77.0255C268.296 70.1312 249.118 60.7469 231.455 51.0222C189.412 20.7427 153.366 -15.2949 109.208 -40.5841C63.8869 -66.5387 13.9724 -85.5121 -29.7153 -93.7857C-33.6243 -94.5253 -37.6558 -95.1267 -41.6528 -95.8023C-57.7785 -98.5303 -72.2671 -96.6519 -70.6491 -94.9296" stroke="white" stroke-opacity="0.42" stroke-miterlimit="10" stroke-linecap="round" stroke-linejoin="round"/>
<path opacity="0.5745" d="M1598.83 -75.6493C1598.83 -75.6493 1588.1 -76.394 1569.1 -73.6301C1536.63 -68.9085 1487.1 -64.5708 1429.11 -54.2857C1417.6 -52.2436 1405.89 -49.6717 1393.8 -47.0741C1387.82 -45.8048 1381.98 -44.4485 1376.12 -43.3532C1361.34 -40.5919 1346.91 -38.5446 1333.1 -35.988C1314.45 -32.5358 1296.16 -29.7796 1277.89 -27.9601C1166.21 -16.8381 1048.41 -42.7236 930.679 -4.88955C856.867 18.831 815.241 52.6088 756.475 64.3705C747.276 66.2105 737.366 63.8919 727.777 65.0052C712.126 66.8221 697.71 63.1166 682.674 59.3521C659.656 53.589 634.064 41.2489 599.063 45.1132C593.7 45.712 588.303 46.3773 582.861 47.0273C543.468 51.731 502.343 57.7117 463.796 63.9176C436.471 68.3167 408.844 70.9987 381.267 71.5847C366.12 71.9071 350.963 71.5438 335.782 69.8241C321.568 68.222 307.168 65.7857 293.111 61.4659C270.648 54.5588 251.432 45.2692 233.669 35.6776C191.542 5.58236 154.674 -29.9178 109.904 -54.6645C63.994 -80.0433 13.5247 -98.2002 -30.8667 -105.233C-34.8216 -105.86 -38.8875 -106.351 -42.9266 -106.909C-59.1326 -109.148 -73.6442 -106.558 -71.9115 -104.102" stroke="white" stroke-opacity="0.42" stroke-miterlimit="10" stroke-linecap="round" stroke-linejoin="round"/>
<path opacity="0.5957" d="M1599.33 -86.753C1599.33 -86.753 1588.41 -87.8765 1568.96 -85.6986C1536.15 -82.0237 1485.63 -78.9016 1426.73 -69.3996C1415.09 -67.5212 1403.23 -65.1054 1391.02 -62.6358C1384.98 -61.4305 1379.08 -60.1407 1373.17 -59.0992C1358.24 -56.471 1343.72 -54.5465 1329.83 -52.1025C1311.04 -48.7936 1292.63 -46.1833 1274.26 -44.548C1161.93 -34.5495 1043.85 -62.7613 925.814 -23.7756C852.059 0.582149 811.886 35.6344 753.228 49.2003C744.281 51.2681 734.448 49.336 725.153 50.6872C709.85 52.9137 695.583 49.8376 680.609 46.6514C657.878 41.8121 632.282 30.1451 597.663 33.646C592.358 34.1885 587.018 34.7925 581.637 35.3709C542.6 39.5755 501.815 44.727 463.762 50.2317C436.735 54.142 409.437 56.3429 382.193 56.5758C367.264 56.7012 352.328 56.1817 337.373 54.3672C323.374 52.6731 309.195 50.1882 295.352 45.9068C272.988 38.9895 253.738 29.792 235.872 20.3334C193.665 -9.57759 155.966 -44.5403 110.584 -68.747C64.0816 -93.5526 13.0654 -110.893 -32.0298 -116.682C-36.0306 -117.196 -40.1308 -117.578 -44.2157 -118.018C-60.502 -119.773 -75.0328 -116.47 -73.1854 -113.278" stroke="white" stroke-opacity="0.42" stroke-miterlimit="10" stroke-linecap="round" stroke-linejoin="round"/>
<path opacity="0.617" d="M1599.83 -97.8575C1599.83 -97.8575 1588.71 -99.3546 1568.81 -97.7679C1535.66 -95.1243 1484.15 -93.2255 1424.34 -84.5143C1412.57 -82.7997 1400.58 -80.5373 1388.24 -78.1983C1382.13 -77.0569 1376.17 -75.8337 1370.21 -74.8459C1355.13 -72.3482 1340.52 -70.5465 1326.57 -68.2152C1307.62 -65.047 1289.1 -62.5877 1270.63 -61.1341C1157.65 -52.259 1039.28 -82.7971 920.941 -42.6624C847.244 -17.6674 808.483 18.6158 749.973 34.0269C741.28 36.3173 731.779 35.7057 722.522 36.3659C707.139 37.4612 693.449 36.5527 678.532 33.9475C656.096 30.0269 630.488 19.0381 596.252 22.1755C591.008 22.6618 585.73 23.2018 580.405 23.711C541.728 27.4166 501.28 31.7365 463.724 36.5425C436.992 39.964 410.03 41.2769 383.115 41.5635C368.408 41.7196 353.69 40.8187 338.96 38.9071C325.176 37.1234 311.222 34.5848 297.591 30.3443C275.33 23.4168 256.041 14.3114 238.072 4.98597C195.78 -24.7408 157.256 -59.1661 111.262 -82.8329C64.1702 -107.063 12.6072 -123.595 -33.1994 -128.134C-37.2461 -128.536 -41.3808 -128.81 -45.5117 -129.13C-61.8783 -130.402 -76.4281 -126.381 -74.466 -122.458" stroke="white" stroke-opacity="0.42" stroke-miterlimit="10" stroke-linecap="round" stroke-linejoin="round"/>
<path opacity="0.6383" d="M1600.33 -108.961C1600.33 -108.961 1589.01 -110.822 1568.68 -109.834C1535.17 -108.211 1482.67 -107.543 1421.95 -99.6229C1410.06 -98.072 1397.93 -95.9659 1385.46 -93.7548C1379.29 -92.6749 1373.27 -91.5181 1367.27 -90.5866C1352.03 -88.222 1337.33 -86.5432 1323.3 -84.3219C1304.2 -81.297 1285.57 -78.9836 1267 -77.7168C1153.37 -69.9678 1034.72 -102.835 916.076 -61.5431C842.436 -35.9135 805.044 1.56229 746.726 18.862C738.273 21.3699 728.921 21.1165 719.902 22.0531C704.775 23.6219 691.327 23.2713 676.471 21.2522C654.329 18.2401 628.71 7.93957 594.856 10.7137C589.673 11.1436 584.448 11.6196 579.185 12.0598C540.868 15.2663 500.752 18.7544 463.697 22.8618C437.26 25.7946 410.635 27.0409 384.048 26.5598C369.563 26.2962 355.063 25.4644 340.559 23.453C326.989 21.5771 313.257 18.9873 299.84 14.7878C277.678 7.84747 258.351 -1.16321 240.283 -10.353C197.911 -39.8981 158.56 -73.786 111.95 -96.9102C64.2696 -120.567 12.1672 -136.293 -34.3585 -139.578C-38.4512 -139.868 -42.6202 -140.034 -46.7931 -140.234C-63.24 -141.024 -77.8129 -136.287 -75.736 -131.63" stroke="white" stroke-opacity="0.42" stroke-miterlimit="10" stroke-linecap="round" stroke-linejoin="round"/>
<path opacity="0.6596" d="M1600.83 -120.065C1600.83 -120.065 1589.05 -124.108 1568.53 -121.903C1535.08 -118.307 1481.19 -121.862 1419.56 -114.737C1407.53 -113.347 1395.26 -111.397 1382.67 -109.319C1376.44 -108.303 1370.36 -107.213 1364.31 -106.335C1348.93 -104.104 1334.13 -102.548 1320.03 -100.437C1300.79 -97.555 1282.03 -95.3875 1263.36 -94.305C1149.09 -87.6794 1030.14 -122.88 911.199 -80.4294C837.612 -54.1677 801.54 -15.5352 743.467 3.6915C735.255 6.41184 726.056 6.52441 717.267 7.73488C702.399 9.77961 689.188 9.97923 674.394 8.55124C652.542 6.44252 626.916 -3.16439 593.44 -0.753697C588.315 -0.377506 583.151 0.031943 577.95 0.403016C539.988 3.10801 500.209 5.76442 463.655 9.17829C437.512 11.6197 411.224 12.3925 384.966 11.5531C370.699 11.0976 356.417 10.1046 342.143 7.99846C328.782 6.03305 315.28 3.39205 302.077 -0.769082C280.019 -7.72222 260.65 -16.6382 242.482 -25.6949C200.026 -55.0557 159.849 -88.4087 112.627 -110.99C64.3574 -134.074 11.7157 -149.001 -35.5253 -151.025C-39.6638 -151.202 -43.8711 -151.261 -48.0861 -151.34C-64.6172 -151.655 -79.2052 -146.194 -77.0136 -140.804" stroke="white" stroke-opacity="0.42" stroke-miterlimit="10" stroke-linecap="round" stroke-linejoin="round"/>
</g>
</svg>
