<svg width="384" height="22" viewBox="0 0 384 22" fill="none" xmlns="http://www.w3.org/2000/svg">
<path d="M0 1C11.9949 1 11.9949 21.0002 23.9872 21.0002C35.9847 21.0002 35.9846 1 47.982 1C59.982 1 59.9821 21.0002 71.9795 21.0002C83.977 21.0002 83.9771 1 95.9745 1C107.972 1 107.972 21.0002 119.969 21.0002C131.969 21.0002 131.969 1 143.967 1C155.967 1 155.967 21.0002 167.969 21.0002C179.969 21.0002 179.969 1 191.967 1C203.967 1 203.967 21.0002 215.967 21.0002C227.964 21.0002 227.964 1 239.962 1C251.959 1 251.959 21.0002 263.957 21.0002C275.957 21.0002 275.957 1 287.957 1C299.962 1 299.962 21.0002 311.964 21.0002C323.964 21.0002 323.964 1 335.964 1C347.974 1 347.974 21.0002 359.982 21.0002C371.992 21.0002 371.992 1 384 1" stroke="white" stroke-width="0.75" stroke-miterlimit="10"/>
</svg>
